# xmcd
#
# Track frame offsets:
#	150
#	16017
#	30060
#	47112
#	64195
#	79092
#	95535
#	112810
#	130382
#	146382
#	162695
#	177695
#	193040
#	208160
#	224997
#
# Disc length: 3193 seconds
#
# Revision: 2
# Processed by: cddbd v1.5.1PL2 Copyright (c) Steve Scherf et al.
# Submitted via: audiograbber 1.83.01
#
DISCID=db0c770f
DTITLE=Music Maestro - MM6216
DYEAR=1900
DGENRE=Karaoke
TTITLE0=Yearwood, Trisha and Garth Brooks - In Another's Eyes
TTITLE1=Raybon Brothers, The - Way She's Looking, The
TTITLE2=Fogerty, John - Southern Streamline
TTITLE3=Rimes, LeAnn - You Light Up My Life
TTITLE4=Walker, Clay - Watch This
TTITLE5=Sellers, Jason - I'm Your Man
TTITLE6=Carson, Jeff - Here's The Deal
TTITLE7=Parnell, Leroy - You Can't Get There From Here
TTITLE8=Mcbride, Martina - Broken Wing, A
TTITLE9=Kinleys, The - Please
TTITLE10=Hayes, Wade - Witchita Lineman
TTITLE11=Chesnutt, Mark - Thank God For Believers
TTITLE12=White, Bryan - Love Is The Right Place
TTITLE13=Carter, Deana - How Do I Get There
TTITLE14=Brooks and Dunn - Honky Tonk Truth
EXTD=As Listed In KJ Pro
EXTT0=
EXTT1=
EXTT2=
EXTT3=
EXTT4=
EXTT5=
EXTT6=
EXTT7=
EXTT8=
EXTT9=
EXTT10=
EXTT11=
EXTT12=
EXTT13=
EXTT14=
PLAYORDER=
